<svg width="28" height="28" viewBox="0 0 28 28" fill="none" xmlns="http://www.w3.org/2000/svg">
<path d="M14.1402 28C17.5351 28 20.5198 26.9628 23.0945 24.8885C25.6692 22.8142 27.2924 20.1763 27.9641 16.975C28.0371 16.7172 27.9988 16.478 27.8492 16.2575C27.7007 16.0393 27.4992 15.9128 27.2447 15.8778C27.0066 15.8427 26.7922 15.897 26.6013 16.0405C26.4104 16.184 26.2755 16.3882 26.1965 16.653C25.5579 19.4343 24.1167 21.7292 21.8732 23.5375C19.6296 25.3458 17.0519 26.25 14.1402 26.25C10.6935 26.25 7.77005 25.0617 5.36975 22.6852C2.96945 20.3087 1.76871 17.4137 1.76753 14C1.76635 10.5863 2.96709 7.69125 5.36975 5.31475C7.77241 2.93825 10.6959 1.75 14.1402 1.75C15.9702 1.75 17.6894 2.13267 19.2979 2.898C20.9063 3.66217 22.3262 4.71508 23.5576 6.05675H20.0561C19.8051 6.05675 19.5948 6.14075 19.4251 6.30875C19.2554 6.47675 19.1712 6.685 19.1724 6.9335C19.1735 7.182 19.2578 7.38967 19.4251 7.5565C19.5925 7.72333 19.8028 7.80675 20.0561 7.80675H25.0847C25.4889 7.80675 25.8277 7.67142 26.1011 7.40075C26.3745 7.13008 26.5111 6.79467 26.5111 6.3945V1.414C26.5111 1.1655 26.4263 0.957834 26.2566 0.791C26.0869 0.624167 25.8772 0.540167 25.6274 0.539C25.3776 0.537834 25.1678 0.621834 24.9981 0.791C24.8285 0.960167 24.7436 1.16783 24.7436 1.414V4.718C23.3767 3.23283 21.7753 2.0755 19.9395 1.246C18.1036 0.4165 16.1705 0.00116667 14.1402 0C12.1783 0 10.3406 0.365167 8.6273 1.0955C6.91398 1.82583 5.41688 2.82567 4.13601 4.095C2.85515 5.36433 1.8453 6.846 1.10647 8.54C0.367647 10.234 -0.00117683 12.0534 1.90735e-06 13.9982C0.00118065 15.9431 0.370003 17.7631 1.10647 19.4583C1.84294 21.1534 2.85279 22.6362 4.13601 23.9067C5.41924 25.1772 6.91634 26.1765 8.6273 26.9045C10.3383 27.6325 12.1747 27.9977 14.1402 28Z" fill="white"/>
<path d="M11.7969 9.51562V18H10.7305V10.6172H10.6836L8.62109 11.9883V10.9219L10.7305 9.51562H11.7969ZM16.3237 18.1172C14.437 18.1172 13.3588 16.5352 13.3588 13.7578C13.3588 11.0039 14.4604 9.39844 16.3237 9.39844C18.187 9.39844 19.2885 11.0039 19.2885 13.7578C19.2885 16.5352 18.1987 18.1172 16.3237 18.1172ZM16.3237 17.1797C17.5424 17.1797 18.2573 15.9492 18.2573 13.7578C18.2573 11.5664 17.5424 10.3125 16.3237 10.3125C15.1049 10.3125 14.3784 11.5664 14.3784 13.7578C14.3784 15.9492 15.0932 17.1797 16.3237 17.1797Z" fill="white"/>
</svg>
