<svg width="75" height="77" viewBox="0 0 75 77" fill="none" xmlns="http://www.w3.org/2000/svg">
<g filter="url(#filter0_d_534_1207)">
<ellipse cx="36.1348" cy="37" rx="36" ry="37" fill="#96BDFF"/>
</g>
<ellipse cx="18.0154" cy="42.3888" rx="6.88014" ry="1.59418" fill="#6499F9"/>
<ellipse cx="53.2551" cy="42.3888" rx="6.88014" ry="1.59418" fill="#6499F9"/>
<circle cx="6.88014" cy="6.88014" r="6.88014" transform="matrix(-1 0 0 1 56.7793 23.3427)" fill="white"/>
<circle cx="3.85959" cy="3.85959" r="3.85959" transform="matrix(-1 0 0 1 51.9126 28.8803)" fill="#465268"/>
<path d="M42.0122 28.4607L54.5139 22.0001" stroke="#465268" stroke-width="1.84589" stroke-linecap="round" stroke-linejoin="round"/>
<circle cx="21.2044" cy="30.2228" r="6.88014" fill="white"/>
<circle cx="23.0495" cy="32.7399" r="3.85959" fill="#465268"/>
<path d="M29.0913 28.4607L16.5896 22.0001" stroke="#465268" stroke-width="1.84589" stroke-linecap="round" stroke-linejoin="round"/>
<path d="M29.3423 49.8562C31.8035 48.9612 37.5481 47.3894 40.8371 48.262" stroke="#465268" stroke-width="1.34247" stroke-linecap="round"/>
<path d="M41.3413 44.9897V51.0308" stroke="#465268" stroke-width="1.34247" stroke-linecap="round"/>
<defs>
<filter id="filter0_d_534_1207" x="0.134766" y="0" width="74" height="77" filterUnits="userSpaceOnUse" color-interpolation-filters="sRGB">
<feFlood flood-opacity="0" result="BackgroundImageFix"/>
<feColorMatrix in="SourceAlpha" type="matrix" values="0 0 0 0 0 0 0 0 0 0 0 0 0 0 0 0 0 0 127 0" result="hardAlpha"/>
<feOffset dx="2" dy="3"/>
<feComposite in2="hardAlpha" operator="out"/>
<feColorMatrix type="matrix" values="0 0 0 0 0 0 0 0 0 0 0 0 0 0 0 0 0 0 0.1 0"/>
<feBlend mode="normal" in2="BackgroundImageFix" result="effect1_dropShadow_534_1207"/>
<feBlend mode="normal" in="SourceGraphic" in2="effect1_dropShadow_534_1207" result="shape"/>
</filter>
</defs>
</svg>
