<svg width="28" height="28" viewBox="0 0 28 28" fill="none" xmlns="http://www.w3.org/2000/svg">
<path d="M13.8598 28C10.4649 28 7.48018 26.9628 4.90549 24.8885C2.33079 22.8142 0.707609 20.1763 0.035949 16.975C-0.0371087 16.7172 0.00118777 16.478 0.150838 16.2575C0.299311 16.0393 0.500809 15.9128 0.755333 15.8778C0.99336 15.8427 1.20782 15.897 1.39871 16.0405C1.58961 16.184 1.72453 16.3882 1.80348 16.653C2.44214 19.4343 3.88327 21.7292 6.12685 23.5375C8.37043 25.3458 10.9481 26.25 13.8598 26.25C17.3065 26.25 20.2299 25.0617 22.6303 22.6852C25.0306 20.3087 26.2313 17.4137 26.2325 14C26.2336 10.5863 25.0329 7.69125 22.6303 5.31475C20.2276 2.93825 17.3041 1.75 13.8598 1.75C12.0298 1.75 10.3106 2.13267 8.70214 2.898C7.09368 3.66217 5.67377 4.71508 4.44239 6.05675H7.94387C8.19485 6.05675 8.40519 6.14075 8.57487 6.30875C8.74456 6.47675 8.82881 6.685 8.82763 6.9335C8.82645 7.182 8.7422 7.38967 8.57487 7.5565C8.40755 7.72333 8.19721 7.80675 7.94387 7.80675H2.91525C2.51108 7.80675 2.1723 7.67142 1.89892 7.40075C1.62555 7.13008 1.48886 6.79467 1.48886 6.3945V1.414C1.48886 1.1655 1.5737 0.957834 1.74338 0.791C1.91306 0.624167 2.12281 0.540167 2.37262 0.539C2.62243 0.537834 2.83218 0.621834 3.00186 0.791C3.17154 0.960167 3.25638 1.16783 3.25638 1.414V4.718C4.62327 3.23283 6.22465 2.0755 8.06052 1.246C9.89639 0.4165 11.8295 0.00116667 13.8598 0C15.8217 0 17.6594 0.365167 19.3727 1.0955C21.086 1.82583 22.5831 2.82567 23.864 4.095C25.1449 5.36433 26.1547 6.846 26.8935 8.54C27.6324 10.234 28.0012 12.0534 28 13.9982C27.9988 15.9431 27.63 17.7631 26.8935 19.4583C26.1571 21.1534 25.1472 22.6362 23.864 23.9067C22.5808 25.1772 21.0837 26.1765 19.3727 26.9045C17.6617 27.6325 15.8253 27.9977 13.8598 28Z" fill="white"/>
<path d="M11.7969 9.51562V18H10.7305V10.6172H10.6836L8.62109 11.9883V10.9219L10.7305 9.51562H11.7969ZM16.3237 18.1172C14.437 18.1172 13.3588 16.5352 13.3588 13.7578C13.3588 11.0039 14.4604 9.39844 16.3237 9.39844C18.187 9.39844 19.2885 11.0039 19.2885 13.7578C19.2885 16.5352 18.1987 18.1172 16.3237 18.1172ZM16.3237 17.1797C17.5424 17.1797 18.2573 15.9492 18.2573 13.7578C18.2573 11.5664 17.5424 10.3125 16.3237 10.3125C15.1049 10.3125 14.3784 11.5664 14.3784 13.7578C14.3784 15.9492 15.0932 17.1797 16.3237 17.1797Z" fill="white"/>
</svg>
