<svg width="161" height="143" viewBox="0 0 161 143" fill="none" xmlns="http://www.w3.org/2000/svg">
<g filter="url(#filter0_d_159_31)">
<rect x="4" y="3" width="153" height="135" rx="10" fill="#FF6379" shape-rendering="crispEdges"/>
<mask id="mask0_159_31" style="mask-type:alpha" maskUnits="userSpaceOnUse" x="4" y="3" width="153" height="135">
<rect x="4" y="3" width="153" height="135" rx="10" fill="#FFB9C3"/>
</mask>
<g mask="url(#mask0_159_31)">
<path d="M76.5 45.5C57 20.5 4 26 -7.5 33V-1.5L171.5 -14L202 78.5C199.667 83.3333 176 89 158.5 89C136.534 89 100.059 75.7033 76.5 45.5Z" fill="#FF516A"/>
</g>
<path d="M65.7081 58.0168C60.7148 59.8893 58.3846 70.5001 80.6879 70.5001C102.991 70.5001 100.037 59.8893 95.2517 58.0168" stroke="white" stroke-width="1.24832" stroke-linecap="round"/>
<path fill-rule="evenodd" clip-rule="evenodd" d="M80.756 39.5C80.0625 41.3725 77.2786 46.1577 72.6419 51.151C67.2325 56.9765 71.6016 64.4664 80.756 64.4664C90.9505 64.4664 93.4474 56.5604 88.8701 51.151C84.2929 45.7416 81.38 41.5805 80.756 39.5ZM78.7958 48.9238C78.9447 48.7487 78.9234 48.4861 78.7483 48.3373C78.5732 48.1885 78.3106 48.2098 78.1617 48.3849C77.5708 49.0801 76.6533 50.1748 75.8203 51.2008C74.9977 52.2141 74.2293 53.1942 73.9609 53.6416C73.6289 54.1949 73.1137 55.3233 73.2005 56.538C73.2446 57.1554 73.4447 57.796 73.9016 58.3829C74.357 58.9679 75.049 59.4758 76.0394 59.861C76.2536 59.9442 76.4947 59.8381 76.578 59.624C76.6613 59.4098 76.5552 59.1686 76.341 59.0853C75.459 58.7423 74.9026 58.3139 74.5583 57.8717C74.2155 57.4313 74.0645 56.9536 74.0306 56.4787C73.9613 55.5089 74.3823 54.5568 74.6745 54.0698C74.9054 53.685 75.6281 52.7579 76.4664 51.7253C77.2944 50.7055 78.2078 49.6157 78.7958 48.9238Z" fill="white"/>
<path d="M37.6941 93.3789C37.2514 93.4961 36.9584 93.431 36.8152 93.1836C36.086 93.2487 35.5847 93.3789 35.3112 93.5742C34.9857 93.8086 34.823 94.1927 34.823 94.7266C34.823 95.1172 35.0118 95.4622 35.3894 95.7617C35.78 96.0612 36.2553 96.2565 36.8152 96.3477C37.5834 96.4388 38.1693 96.5104 38.573 96.5625C38.9766 96.6146 39.4649 96.6406 40.0378 96.6406C41.9128 96.6667 43.2995 96.6341 44.198 96.543C44.7579 96.4909 45.1159 96.4062 45.2722 96.2891C45.4284 96.1719 45.5131 95.9049 45.5261 95.4883C45.5521 95.1237 45.2201 94.7656 44.53 94.4141C43.8399 94.0625 42.8568 93.8216 41.5808 93.6914C40.7474 93.6003 40.0639 93.5091 39.53 93.418C38.9961 93.3268 38.3842 93.3138 37.6941 93.3789ZM37.6355 92.0703C38.3256 92.0182 38.9245 92.0182 39.4323 92.0703C40.0183 92.1354 40.7735 92.2266 41.698 92.3438C42.5053 92.4219 43.1172 92.5456 43.5339 92.7148C43.9506 92.8711 44.4063 93.0208 44.9011 93.1641C45.6303 93.4896 46.1706 93.8281 46.5222 94.1797C46.8737 94.5312 47.043 94.9805 47.03 95.5273C47.043 96.3086 46.8672 96.8685 46.5027 97.207C46.1381 97.5456 45.2982 97.7734 43.9831 97.8906C43.0717 97.9557 41.5157 97.9688 39.3152 97.9297C37.2579 97.8776 36.0144 97.7083 35.5847 97.4219C34.7644 97.1875 34.1915 96.8164 33.8659 96.3086C33.5404 95.8008 33.3907 95.2865 33.4167 94.7656C33.4297 93.737 33.8139 92.9948 34.5691 92.5391C35.3373 92.0833 36.2357 91.8945 37.2644 91.9727C37.4206 91.9727 37.5443 92.0052 37.6355 92.0703ZM45.0769 90.957C44.9857 90.332 44.8881 89.6549 44.7839 88.9258C43.9896 88.9128 43.0586 88.9062 41.9909 88.9062C41.7696 88.9193 41.3529 88.9128 40.7409 88.8867C40.754 89.3034 40.7474 89.6745 40.7214 90C40.7084 90.2604 40.6237 90.4818 40.4675 90.6641C40.3112 90.8464 40.0118 90.9375 39.5691 90.9375C38.7357 90.9375 37.9675 90.9375 37.2644 90.9375C36.5743 90.9375 35.8516 90.957 35.0964 90.9961C34.7318 90.9961 34.4063 90.9505 34.1198 90.8594C33.8334 90.7682 33.612 90.5273 33.4558 90.1367C33.3516 89.8112 33.2605 89.1862 33.1823 88.2617C33.1042 87.3242 33.0652 86.3086 33.0652 85.2148C33.0391 84.668 33.1563 84.3164 33.4167 84.1602C33.6771 83.9909 34.0222 83.8997 34.4519 83.8867L38.6902 83.75C39.3412 83.763 39.7774 83.8997 39.9987 84.1602C40.155 84.3685 40.2722 84.6159 40.3503 84.9023C40.4415 84.9154 40.5261 84.9219 40.6042 84.9219H41.3269C42.629 84.9349 43.6576 84.9349 44.4128 84.9219V83.7891C44.4779 83.4505 44.556 83.2552 44.6472 83.2031C44.7383 83.151 44.8751 83.112 45.0573 83.0859C45.487 83.0469 45.7474 83.2487 45.8386 83.6914C45.7735 85.1367 45.8451 86.5885 46.0534 88.0469C46.2748 89.5052 46.418 90.4818 46.4831 90.9766C46.5352 91.3802 46.3529 91.6146 45.9362 91.6797C45.4935 91.7839 45.2071 91.543 45.0769 90.957ZM44.5886 87.5977C44.5235 87.181 44.4779 86.7253 44.4519 86.2305C43.6185 86.2044 42.642 86.1914 41.5222 86.1914C41.3399 86.2044 41.0079 86.1979 40.5261 86.1719C40.5782 86.6797 40.6237 87.1484 40.6628 87.5781H41.073C41.2292 87.5911 41.4701 87.5977 41.7956 87.5977C42.9415 87.6107 43.8724 87.6107 44.5886 87.5977ZM34.8816 85.2148C34.6211 85.2539 34.5105 85.4232 34.5495 85.7227C34.5626 87.7148 34.6537 88.9518 34.823 89.4336C34.849 89.6549 35.0183 89.7526 35.3308 89.7266C36.2292 89.7005 36.8868 89.6875 37.3034 89.6875C37.7201 89.6745 38.2474 89.668 38.8855 89.668C39.198 89.681 39.3477 89.5378 39.3347 89.2383C39.2696 88.0664 39.1524 86.8294 38.9831 85.5273C38.9701 85.2148 38.8334 85.0651 38.573 85.0781C37.8178 85.1042 37.1928 85.1237 36.698 85.1367C36.2032 85.1367 35.5977 85.1628 34.8816 85.2148ZM52.5552 84.2773C52.5682 84.7331 52.5552 85.3711 52.5161 86.1914C52.5291 86.5299 52.7114 86.8034 53.063 87.0117C53.5968 87.4154 54.1502 87.8385 54.7231 88.2812C55.296 88.7109 55.9145 89.1471 56.5786 89.5898C56.826 89.8242 56.8585 90.1237 56.6762 90.4883C56.4028 90.8008 56.0838 90.8464 55.7192 90.625C55.1854 90.2734 54.6255 89.8958 54.0395 89.4922C53.4536 89.0885 52.796 88.5938 52.0669 88.0078C51.5851 88.2812 51.0773 88.5938 50.5434 88.9453C50.0096 89.2839 49.5343 89.7005 49.1177 90.1953C48.8442 90.3906 48.5643 90.3646 48.2778 90.1172C48.0174 89.8828 47.9914 89.5768 48.1997 89.1992C48.5122 88.7826 48.9223 88.3854 49.4302 88.0078C49.951 87.6302 50.4393 87.2982 50.895 87.0117C50.9992 86.9076 51.0773 86.8099 51.1294 86.7188C51.1815 86.6276 51.2075 86.4648 51.2075 86.2305C51.2205 85.7617 51.2205 85.4622 51.2075 85.332C51.1945 85.2018 51.188 84.8568 51.188 84.2969C51.2401 83.8411 51.4484 83.6133 51.813 83.6133C52.2817 83.6393 52.5291 83.8607 52.5552 84.2773ZM60.4848 85.4688C61.0187 85.4818 61.533 85.4948 62.0278 85.5078C62.5617 85.5469 62.8091 85.7617 62.77 86.1523C62.77 86.6081 62.5291 86.8099 62.0473 86.7578C61.6177 86.7708 61.1098 86.7708 60.5239 86.7578C60.5369 87.1224 60.5565 87.487 60.5825 87.8516C60.6736 89.2578 60.7843 90.3255 60.9145 91.0547C60.9276 91.4453 60.7192 91.6862 60.2895 91.7773C59.8468 91.8164 59.5864 91.5495 59.5083 90.9766C59.339 89.8047 59.2283 88.7565 59.1762 87.832C59.1372 86.8945 59.0916 85.5924 59.0395 83.9258C59.0916 83.5872 59.1567 83.3919 59.2348 83.3398C59.313 83.2747 59.4432 83.2292 59.6255 83.2031C60.0161 83.1641 60.3026 83.3529 60.4848 83.7695C60.4718 84.3294 60.4718 84.8958 60.4848 85.4688ZM51.3442 93.6133C51.1359 93.6784 50.9536 93.6979 50.7973 93.6719C50.563 93.7109 50.3481 93.8672 50.1528 94.1406C49.9315 94.4661 49.8143 94.8633 49.8012 95.332C49.8012 95.7227 50.0226 96.0547 50.4653 96.3281C50.908 96.5885 51.4744 96.7773 52.1645 96.8945C52.6203 96.9987 53.1085 97.0703 53.6294 97.1094C54.1632 97.1484 54.5929 97.1745 54.9184 97.1875C56.1424 97.2135 57.1515 97.1224 57.9458 96.9141C58.4796 96.7969 58.9093 96.6081 59.2348 96.3477C59.5604 96.0872 59.7361 95.7292 59.7622 95.2734C59.7752 94.9089 59.632 94.5443 59.3325 94.1797C59.033 93.8021 58.4536 93.5352 57.5942 93.3789C57.1645 93.2878 56.7479 93.2161 56.3442 93.1641C55.9406 93.112 55.3872 93.0729 54.6841 93.0469C54.2153 93.0208 53.6359 93.0729 52.9458 93.2031C52.2687 93.3333 51.7348 93.4701 51.3442 93.6133ZM50.6411 92.4609C50.7062 92.4219 50.7778 92.3828 50.8559 92.3438C51.4028 92.1484 52.0278 92.0117 52.7309 91.9336C53.4471 91.8424 54.0851 91.7969 54.645 91.7969C55.9341 91.8099 56.9236 91.901 57.6137 92.0703C58.9158 92.2917 59.8273 92.7083 60.3481 93.3203C60.869 93.9323 61.1164 94.5768 61.0903 95.2539C61.1033 95.9831 60.8885 96.6016 60.4458 97.1094C60.0161 97.6172 59.2218 97.9753 58.063 98.1836C56.8911 98.431 55.7322 98.5091 54.5864 98.418C54.0395 98.418 53.4731 98.3724 52.8872 98.2812C52.3012 98.2031 51.7153 98.099 51.1294 97.9688C50.3742 97.8255 49.7427 97.5521 49.2348 97.1484C48.7401 96.7448 48.4731 96.1979 48.4341 95.5078C48.4341 94.7135 48.6489 94.0234 49.0786 93.4375C49.5213 92.8516 50.0421 92.526 50.6411 92.4609ZM67.0061 88.9453C67.0842 88.9193 67.1623 88.8997 67.2405 88.8867C67.6181 88.7435 68.0478 88.6654 68.5295 88.6523C69.1024 88.6263 69.5191 88.6133 69.7795 88.6133C70.1702 88.6523 70.5673 88.7435 70.9709 88.8867C71.3876 89.0299 71.7457 89.2057 72.0452 89.4141C72.5139 89.7135 72.9566 90.1888 73.3733 90.8398C73.7899 91.4779 73.9462 92.2656 73.842 93.2031C73.7379 94.0885 73.5035 94.7656 73.1389 95.2344C72.7743 95.7031 72.3186 96.0547 71.7717 96.2891C71.5894 96.3802 71.2704 96.4583 70.8147 96.5234C70.372 96.5755 69.9553 96.5951 69.5647 96.582C68.3407 96.5951 67.3577 96.3737 66.6155 95.918C65.8863 95.4622 65.411 94.8242 65.1897 94.0039C65.0595 93.6393 65.0009 93.1771 65.0139 92.6172C64.9879 92.1094 65.0465 91.6146 65.1897 91.1328C65.3459 90.651 65.5543 90.2279 65.8147 89.8633C65.9579 89.6549 66.1207 89.4857 66.303 89.3555C66.4853 89.2122 66.7196 89.0755 67.0061 88.9453ZM67.3381 90.293C66.9345 90.5534 66.6741 90.8724 66.5569 91.25C66.4136 91.7188 66.3485 92.1549 66.3616 92.5586C66.3485 93.0273 66.4136 93.4505 66.5569 93.8281C66.7131 94.2578 67.0452 94.6094 67.553 94.8828C68.0608 95.1432 68.7314 95.2734 69.5647 95.2734C70.6194 95.2604 71.3551 95.0846 71.7717 94.7461C72.2014 94.4076 72.4488 93.8802 72.5139 93.1641C72.5399 92.5391 72.4553 92.0443 72.26 91.6797C72.0647 91.3151 71.8824 91.0482 71.7131 90.8789C71.5178 90.6576 71.2509 90.4688 70.9123 90.3125C70.5738 90.1562 70.2287 90.0456 69.8772 89.9805C69.0178 89.9154 68.2496 89.987 67.5725 90.1953C67.4944 90.2474 67.4162 90.2799 67.3381 90.293ZM76.0295 85.293C76.0295 85.0195 76.0621 84.7917 76.1272 84.6094C76.2053 84.4271 76.4202 84.3359 76.7717 84.3359C77.2274 84.388 77.4488 84.668 77.4358 85.1758C77.5399 86.3737 77.6311 87.7279 77.7092 89.2383C78.1519 89.2643 78.6207 89.2839 79.1155 89.2969C79.5321 89.362 79.747 89.6029 79.76 90.0195C79.734 90.3711 79.5191 90.5273 79.1155 90.4883C78.7899 90.4753 78.484 90.4688 78.1975 90.4688H77.7678C77.7808 90.7682 77.7939 91.0742 77.8069 91.3867C77.911 93.7826 77.9631 95.4492 77.9631 96.3867C78.0152 96.569 77.9696 96.7513 77.8264 96.9336C77.6962 97.1029 77.4814 97.194 77.1819 97.207C76.8954 97.181 76.7001 96.901 76.5959 96.3672C76.5439 94.9479 76.4722 93.3464 76.3811 91.5625C76.303 89.7786 76.1858 87.6888 76.0295 85.293ZM63.3928 87.2656C63.3407 86.8229 63.6207 86.5755 64.2327 86.5234C65.8863 86.4583 67.3967 86.3932 68.7639 86.3281C70.1441 86.263 71.7782 86.1784 73.6662 86.0742C73.7834 86.0612 73.9267 86.0807 74.0959 86.1328C74.2782 86.1849 74.3759 86.3346 74.3889 86.582C74.4149 86.7513 74.3824 86.9206 74.2912 87.0898C74.2001 87.2591 74.0439 87.3503 73.8225 87.3633C72.4944 87.4674 70.8733 87.5651 68.9592 87.6562C67.0582 87.7474 65.5217 87.8125 64.3498 87.8516C64.0634 87.8776 63.8485 87.8646 63.7053 87.8125C63.5621 87.7604 63.4579 87.5781 63.3928 87.2656ZM66.1272 85.332C65.6845 85.4102 65.411 85.2279 65.3069 84.7852C65.3329 84.3294 65.5543 84.0951 65.9709 84.082C66.8824 83.9779 67.7548 83.8997 68.5881 83.8477C69.4215 83.7956 70.3524 83.7305 71.3811 83.6523C71.7978 83.6003 72.0386 83.763 72.1037 84.1406C72.1168 84.5573 71.9475 84.7982 71.5959 84.8633C70.6454 84.9805 69.8251 85.0716 69.135 85.1367C68.4579 85.1888 67.4553 85.2539 66.1272 85.332ZM81.1836 85.332C82.1732 85.1888 83.0911 85.0716 83.9375 84.9805C84.7839 84.8893 85.4935 84.8438 86.0664 84.8438C86.5872 84.8177 87.0039 84.8828 87.3164 85.0391C87.6289 85.1953 87.8372 85.5729 87.9414 86.1719C87.9544 86.5625 87.9674 86.9466 87.9805 87.3242C88.0065 87.7018 88 88.0599 87.9609 88.3984C87.9349 88.7109 87.8242 88.9648 87.6289 89.1602C87.4336 89.3555 87.1406 89.4922 86.75 89.5703C86.138 89.6615 85.5195 89.7526 84.8945 89.8438C84.2695 89.9349 83.6315 90.0195 82.9805 90.0977C82.6419 90.1497 82.4271 90.2409 82.3359 90.3711C82.2578 90.4883 82.2253 90.6641 82.2383 90.8984C82.2643 91.4844 82.2904 91.9792 82.3164 92.3828C82.3424 92.7865 82.401 93.2487 82.4922 93.7695C82.5443 94.2643 82.8307 94.4792 83.3516 94.4141C83.7943 94.362 84.2435 94.3294 84.6992 94.3164C85.168 94.2904 85.7539 94.2122 86.457 94.082C87.056 94.0039 87.4596 93.9648 87.668 93.9648C87.8893 93.9518 88.2018 93.9583 88.6055 93.9844C89.1654 94.1276 89.4128 94.375 89.3477 94.7266C89.2826 95.1172 89.0156 95.2995 88.5469 95.2734C88.0911 95.3385 87.694 95.3776 87.3555 95.3906C87.0169 95.3906 86.5091 95.4427 85.832 95.5469C85.3893 95.5729 84.9857 95.6185 84.6211 95.6836C84.2695 95.7357 83.8333 95.7878 83.3125 95.8398C82.7396 95.8659 82.2708 95.7747 81.9062 95.5664C81.5417 95.3581 81.2878 94.974 81.1445 94.4141C81.0273 93.8542 80.9427 93.2096 80.8906 92.4805C80.8385 91.7383 80.819 91.0872 80.832 90.5273C80.8451 89.9935 80.9297 89.6224 81.0859 89.4141C81.2422 89.2057 81.5872 89.0299 82.1211 88.8867C82.9544 88.7565 83.625 88.6589 84.1328 88.5938C84.6536 88.5286 85.2135 88.457 85.8125 88.3789C86.112 88.3529 86.3138 88.2878 86.418 88.1836C86.5221 88.0664 86.5742 87.8646 86.5742 87.5781C86.5612 87.2917 86.5417 86.9857 86.5156 86.6602C86.4766 86.5299 86.418 86.4193 86.3398 86.3281C86.2617 86.224 86.099 86.1719 85.8516 86.1719C85.0964 86.25 84.4323 86.3151 83.8594 86.3672C83.2995 86.4193 82.3945 86.5365 81.1445 86.7188C80.7279 86.7188 80.4935 86.5039 80.4414 86.0742C80.4414 85.8268 80.487 85.6576 80.5781 85.5664C80.6823 85.4622 80.8841 85.3841 81.1836 85.332ZM91.8281 84.9805C91.8021 84.707 91.8281 84.4661 91.9062 84.2578C91.9844 84.0495 92.1927 83.9258 92.5312 83.8867C93.0521 83.8997 93.306 84.1602 93.293 84.668C93.3711 85.5924 93.4362 86.4974 93.4883 87.3828C93.5534 88.2682 93.612 89.2839 93.6641 90.4297C93.7552 91.3802 93.8138 92.3893 93.8398 93.457C93.8789 94.5247 93.918 95.2799 93.957 95.7227C94.0091 96.0091 93.9896 96.25 93.8984 96.4453C93.8073 96.6276 93.612 96.7383 93.3125 96.7773C92.9479 96.7513 92.6875 96.5234 92.5312 96.0938C92.4792 95.3516 92.4401 94.4857 92.4141 93.4961C92.388 92.6888 92.349 91.9661 92.2969 91.3281C91.8411 91.3932 91.3854 91.4388 90.9297 91.4648C90.2266 91.5299 89.4388 91.582 88.5664 91.6211C88.1888 91.6471 87.9284 91.4714 87.7852 91.0938C87.7852 90.8333 87.8568 90.6576 88 90.5664C88.1562 90.4622 88.3516 90.3971 88.5859 90.3711C89.4974 90.319 90.2461 90.2604 90.832 90.1953C91.2617 90.1562 91.724 90.1042 92.2188 90.0391C92.1797 89.2057 92.1406 88.4896 92.1016 87.8906C92.0495 87.1094 91.9583 86.1393 91.8281 84.9805ZM100.066 94.1211C101.199 93.7305 102.026 93.3854 102.546 93.0859C103.08 92.7865 103.614 92.3893 104.148 91.8945C104.76 91.2956 105.242 90.612 105.593 89.8438C105.958 89.0755 106.16 88.4375 106.199 87.9297C106.186 87.7344 106.179 87.4935 106.179 87.207C106.218 86.9336 106.108 86.8034 105.847 86.8164C104.063 86.9466 102.345 87.0117 100.691 87.0117C100.417 87.0117 100.203 86.9727 100.046 86.8945C99.8902 86.8034 99.812 86.5885 99.812 86.25C99.8511 85.8594 100.112 85.6641 100.593 85.6641C101.856 85.6771 103.777 85.625 106.355 85.5078C106.628 85.5078 106.889 85.5859 107.136 85.7422C107.397 85.8854 107.54 86.2044 107.566 86.6992C107.67 87.0638 107.67 87.5195 107.566 88.0664C107.488 88.8477 107.24 89.6875 106.824 90.5859C106.407 91.4844 106.029 92.0768 105.691 92.3633C105.131 93.0143 104.389 93.6133 103.464 94.1602C102.54 94.707 101.544 95.1107 100.476 95.3711C100.164 95.4622 99.9097 95.332 99.7144 94.9805C99.6493 94.5638 99.7665 94.2773 100.066 94.1211ZM110.242 85.1562C110.242 84.8828 110.255 84.6354 110.281 84.4141C110.32 84.1927 110.515 84.0365 110.867 83.9453C111.375 83.9974 111.628 84.2773 111.628 84.7852C111.707 85.9831 111.765 86.9206 111.804 87.5977C111.83 88.0143 111.85 88.5156 111.863 89.1016C112.566 89.0495 113.393 88.9453 114.343 88.7891C114.76 88.776 115.014 88.9844 115.105 89.4141C115.131 89.7656 114.942 89.974 114.539 90.0391C113.731 90.2214 112.846 90.3451 111.882 90.4102C111.882 91.7513 111.895 92.7474 111.921 93.3984C111.947 94.0625 112 94.7982 112.078 95.6055C112.13 95.7878 112.097 96.0156 111.98 96.2891C111.863 96.5495 111.654 96.6862 111.355 96.6992C111.016 96.6862 110.782 96.4583 110.652 96.0156C110.587 95.2083 110.541 94.4792 110.515 93.8281C110.489 93.1641 110.47 92.2005 110.457 90.9375C110.483 89.7005 110.47 88.8021 110.417 88.2422C110.365 87.6823 110.307 86.6536 110.242 85.1562ZM115.689 94.1211C116.822 93.7305 117.648 93.3854 118.169 93.0859C118.703 92.7865 119.237 92.3893 119.771 91.8945C120.383 91.2956 120.865 90.612 121.216 89.8438C121.581 89.0755 121.783 88.4375 121.822 87.9297C121.809 87.7344 121.802 87.4935 121.802 87.207C121.841 86.9336 121.73 86.8034 121.47 86.8164C119.686 86.9466 117.967 87.0117 116.314 87.0117C116.04 87.0117 115.825 86.9727 115.669 86.8945C115.513 86.8034 115.435 86.5885 115.435 86.25C115.474 85.8594 115.734 85.6641 116.216 85.6641C117.479 85.6771 119.4 85.625 121.978 85.5078C122.251 85.5078 122.512 85.5859 122.759 85.7422C123.019 85.8854 123.163 86.2044 123.189 86.6992C123.293 87.0638 123.293 87.5195 123.189 88.0664C123.111 88.8477 122.863 89.6875 122.447 90.5859C122.03 91.4844 121.652 92.0768 121.314 92.3633C120.754 93.0143 120.012 93.6133 119.087 94.1602C118.163 94.707 117.167 95.1107 116.099 95.3711C115.786 95.4622 115.533 95.332 115.337 94.9805C115.272 94.5638 115.389 94.2773 115.689 94.1211ZM126.06 85.1562C126.06 84.8828 126.073 84.6354 126.099 84.4141C126.138 84.1927 126.333 84.0365 126.685 83.9453C127.193 83.9974 127.447 84.2773 127.447 84.7852C127.525 85.9831 127.583 86.9271 127.622 87.6172C127.674 88.2943 127.7 89.2188 127.7 90.3906C127.7 91.7318 127.713 92.7344 127.74 93.3984C127.766 94.0625 127.818 94.7982 127.896 95.6055C127.948 95.7878 127.915 96.0156 127.798 96.2891C127.681 96.5495 127.473 96.6862 127.173 96.6992C126.835 96.6862 126.6 96.4583 126.47 96.0156C126.405 95.2083 126.359 94.4792 126.333 93.8281C126.307 93.1641 126.288 92.2005 126.275 90.9375C126.301 89.7005 126.288 88.8021 126.236 88.2422C126.184 87.6823 126.125 86.6536 126.06 85.1562Z" fill="white"/>
</g>
<defs>
<filter id="filter0_d_159_31" x="0" y="0" width="161" height="143" filterUnits="userSpaceOnUse" color-interpolation-filters="sRGB">
<feFlood flood-opacity="0" result="BackgroundImageFix"/>
<feColorMatrix in="SourceAlpha" type="matrix" values="0 0 0 0 0 0 0 0 0 0 0 0 0 0 0 0 0 0 127 0" result="hardAlpha"/>
<feOffset dy="1"/>
<feGaussianBlur stdDeviation="2"/>
<feComposite in2="hardAlpha" operator="out"/>
<feColorMatrix type="matrix" values="0 0 0 0 0 0 0 0 0 0 0 0 0 0 0 0 0 0 0.15 0"/>
<feBlend mode="normal" in2="BackgroundImageFix" result="effect1_dropShadow_159_31"/>
<feBlend mode="normal" in="SourceGraphic" in2="effect1_dropShadow_159_31" result="shape"/>
</filter>
</defs>
</svg>
