<svg width="94" height="100" viewBox="0 0 94 100" fill="none" xmlns="http://www.w3.org/2000/svg">
<path d="M10.3095 83.4579C15.8752 73.2325 16.6432 57.4759 17.6959 50.2189C18.7487 42.9619 28.1543 34.8162 32.0115 33.8324C39.1045 32.0204 49.0279 31.6579 59.7106 36.8957C65.9925 39.9763 72.3607 42.9102 78.8325 45.5852C80.7308 46.3704 82.6379 47.1297 84.5621 47.8201C86.1499 48.3896 87.8325 48.6916 89.3512 49.451C90.5161 50.0377 91.2669 50.9438 91.8623 52.0914C93.1221 54.5248 93.4759 57.4242 93.4241 60.125C93.3465 64.0858 92.2333 68.2622 89.1096 70.9631C86.3311 73.3706 83.1297 75.3207 79.8507 76.9689C72.1622 80.826 63.3002 83.5269 54.6281 83.1472C54.2139 83.13 53.7911 83.1041 53.3769 83.0696C46.258 82.2757 43.488 81.5768 42.6251 83.1817C41.0029 84.1482 67.6838 90.2058 64.586 91.1463C62.7825 91.6986 52.1429 100.707 37.4995 98.7312C21.8033 99.3266 10.871 99.6133 8.10113 96.6449C5.33121 93.6765 8.10115 88.4473 10.3181 83.4665L10.3095 83.4579Z" fill="#DF901F"/>
<path d="M43.4185 34.6436C43.4185 34.6436 42.2967 20.9925 43.4185 18.4211C44.5403 15.8496 47.7675 9.25708 48.7598 5.02886C49.7522 0.80065 50.5374 -0.174428 52.5135 0.0240391C54.4895 0.222506 56.8625 1.21484 58.2518 5.16693C59.641 9.12764 60.8232 17.8343 54.688 24.8842C48.5527 31.9427 45.7828 34.6436 45.7828 34.6436H43.4099H43.4185Z" fill="#DF901F"/>
<path d="M39.0006 33.7202C39.0006 33.7202 38.7331 24.4182 27.8519 15.1247C16.9708 5.82264 6.38297 7.95401 0.705078 9.65392C3.21612 15.3232 9.31683 22.7096 16.6342 27.2657C23.9516 31.8218 35.6957 34.6522 35.6957 34.6522L38.992 33.7289L39.0006 33.7202Z" fill="#DF901F"/>
<path d="M56.1038 49.3735C57.2571 49.3735 58.1921 48.4385 58.1921 47.2852C58.1921 46.1319 57.2571 45.197 56.1038 45.197C54.9506 45.197 54.0156 46.1319 54.0156 47.2852C54.0156 48.4385 54.9506 49.3735 56.1038 49.3735Z" fill="#231815"/>
<path d="M83.7859 53.9899C83.9067 55.1376 82.2758 57.1654 79.9891 57.4156C77.7024 57.6659 75.6401 56.035 75.5106 54.896C75.3812 53.7569 77.1329 52.6265 79.4196 52.3763C81.7063 52.1261 83.6564 52.8509 83.7859 53.9986V53.9899Z" fill="#9A522C"/>
<path d="M38.6898 51.1508C39.8431 51.1508 40.778 50.2159 40.778 49.0626C40.778 47.9093 39.8431 46.9744 38.6898 46.9744C37.5365 46.9744 36.6016 47.9093 36.6016 49.0626C36.6016 50.2159 37.5365 51.1508 38.6898 51.1508Z" fill="#231815"/>
<path d="M54.7142 72.0588C54.7142 72.0588 53.9721 77.7971 61.1428 77.5469C68.3135 77.2966 67.0796 71.3599 67.0796 71.3599" stroke="#A2233E" stroke-width="3.4516" stroke-miterlimit="10" stroke-linecap="round"/>
</svg>
