<svg width="161" height="143" viewBox="0 0 161 143" fill="none" xmlns="http://www.w3.org/2000/svg">
<g filter="url(#filter0_d_159_42)">
<rect x="4" y="3" width="153" height="135" rx="10" fill="#FF6379" shape-rendering="crispEdges"/>
<mask id="mask0_159_42" style="mask-type:alpha" maskUnits="userSpaceOnUse" x="4" y="3" width="153" height="135">
<rect x="4" y="3" width="153" height="135" rx="10" fill="#FF6379"/>
</mask>
<g mask="url(#mask0_159_42)">
<path d="M76 45.5C56.5 20.5 3.5 26 -8 33V-1.5L171 -14L201.5 78.5C199.167 83.3333 175.5 89 158 89C136.034 89 99.5586 75.7033 76 45.5Z" fill="#FF516A"/>
</g>
<path d="M28.965 83.9883C28.952 83.7148 28.978 83.4805 29.0431 83.2852C29.1212 83.0768 29.3361 82.9661 29.6877 82.9531C30.1694 82.9792 30.3908 83.2461 30.3517 83.7539C30.3127 84.6914 30.2996 85.5182 30.3127 86.2344C30.3127 86.5469 30.3192 86.8789 30.3322 87.2305C30.9702 87.2305 31.5431 87.237 32.0509 87.25C32.5718 87.3021 32.8192 87.5169 32.7931 87.8945C32.7931 88.3372 32.5522 88.5326 32.0705 88.4805C31.784 88.4674 31.4129 88.4674 30.9572 88.4805H30.3908C30.3908 88.5977 30.3973 88.7148 30.4103 88.832C30.4364 89.6914 30.4689 90.5703 30.508 91.4688C30.547 92.3672 30.5926 93.168 30.6447 93.8711C30.6707 94.1576 30.6186 94.3724 30.4884 94.5156C30.3582 94.6458 30.1694 94.724 29.922 94.75C29.5705 94.763 29.3426 94.5677 29.2384 94.1641C29.1994 93.3568 29.1538 92.1979 29.1017 90.6875C29.0627 89.1641 29.0171 86.931 28.965 83.9883ZM25.3322 85.1797C24.5509 85.2708 23.672 85.3164 22.6955 85.3164C22.6824 86.0846 22.6824 86.5339 22.6955 86.6641C22.7085 86.8203 22.7475 87.4648 22.8127 88.5977C23.2163 88.9883 23.5418 89.3073 23.7892 89.5547C24.0496 89.8021 24.2905 90.0234 24.5119 90.2188C24.9025 90.5703 25.2541 90.9089 25.5666 91.2344C25.8791 91.5599 26.1395 91.8464 26.3478 92.0938C26.6082 92.3151 26.8361 92.6341 27.0314 93.0508C27.0314 93.2982 26.9337 93.487 26.7384 93.6172C26.6343 93.7083 26.478 93.7474 26.2697 93.7344C26.0744 93.7083 25.8725 93.5716 25.6642 93.3242C25.4559 93.0768 25.241 92.8424 25.0197 92.6211C24.7983 92.3867 24.4728 92.0417 24.0431 91.5859C23.5093 91.0651 22.9624 90.5898 22.4025 90.1602C21.8556 90.5768 21.4585 90.9023 21.2111 91.1367C20.9767 91.3711 20.5405 91.7747 19.9025 92.3477C19.7723 92.5299 19.6356 92.6992 19.4923 92.8555C19.3491 93.0117 19.2384 93.194 19.1603 93.4023C19.0431 93.7279 18.7827 93.8581 18.3791 93.793C18.2489 93.793 18.1252 93.7279 18.008 93.5977C17.9038 93.4674 17.8517 93.3242 17.8517 93.168C17.9298 92.8164 18.0535 92.5104 18.2228 92.25C18.3921 91.9766 18.6199 91.6901 18.9064 91.3906C19.1929 91.0911 19.4663 90.8242 19.7267 90.5898C20.2866 90.0951 20.6447 89.763 20.8009 89.5938C20.9572 89.4245 21.1785 89.2161 21.465 88.9688C21.3869 88.1484 21.3543 87.582 21.3673 87.2695C21.3673 86.9831 21.3608 86.319 21.3478 85.2773C20.1759 85.2383 19.0952 85.1927 18.1056 85.1406C17.9103 85.1276 17.7541 85.0755 17.6369 84.9844C17.5197 84.8932 17.4611 84.7174 17.4611 84.457C17.4611 84.2487 17.5392 84.0859 17.6955 83.9688C17.8647 83.8516 18.06 83.7995 18.2814 83.8125C19.31 83.8646 20.534 83.9102 21.9533 83.9492C23.3856 83.9883 24.4858 83.9688 25.2541 83.8906C25.4754 83.8776 25.6512 83.9167 25.7814 84.0078C25.9246 84.0859 25.9962 84.2422 25.9962 84.4766C26.0223 84.6458 25.9832 84.8086 25.8791 84.9648C25.7749 85.1081 25.5926 85.1797 25.3322 85.1797ZM33.3551 92.6211C34.4879 92.2305 35.3147 91.8854 35.8356 91.5859C36.3694 91.2865 36.9033 90.8893 37.4371 90.3945C38.0491 89.7956 38.5309 89.112 38.8824 88.3438C39.247 87.5755 39.4488 86.9375 39.4879 86.4297C39.4749 86.2344 39.4684 85.9935 39.4684 85.707C39.5074 85.4336 39.3968 85.3034 39.1363 85.3164C37.3525 85.4466 35.6337 85.5117 33.9801 85.5117C33.7067 85.5117 33.4918 85.4727 33.3356 85.3945C33.1793 85.3034 33.1012 85.0885 33.1012 84.75C33.1403 84.3594 33.4007 84.1641 33.8824 84.1641C35.1455 84.1771 37.066 84.125 39.6442 84.0078C39.9176 84.0078 40.178 84.0859 40.4254 84.2422C40.6858 84.3854 40.8291 84.7044 40.8551 85.1992C40.9593 85.5638 40.9593 86.0195 40.8551 86.5664C40.777 87.3477 40.5296 88.1875 40.1129 89.0859C39.6962 89.9844 39.3186 90.5768 38.9801 90.8633C38.4202 91.5143 37.678 92.1133 36.7535 92.6602C35.8291 93.207 34.833 93.6107 33.7653 93.8711C33.4528 93.9622 33.1988 93.832 33.0035 93.4805C32.9384 93.0638 33.0556 92.7773 33.3551 92.6211ZM43.5309 83.6562C43.5309 83.3828 43.5439 83.1354 43.5699 82.9141C43.609 82.6927 43.8043 82.5365 44.1559 82.4453C44.6637 82.4974 44.9176 82.7773 44.9176 83.2852C44.9957 84.4831 45.0543 85.4206 45.0934 86.0977C45.1194 86.5143 45.1389 87.0156 45.152 87.6016C45.8551 87.5495 46.6819 87.4453 47.6324 87.2891C48.0491 87.276 48.303 87.4844 48.3942 87.9141C48.4202 88.2656 48.2314 88.474 47.8278 88.5391C47.0205 88.7214 46.135 88.8451 45.1715 88.9102C45.1715 90.2513 45.1845 91.2474 45.2106 91.8984C45.2366 92.5625 45.2887 93.2982 45.3668 94.1055C45.4189 94.2878 45.3863 94.5156 45.2692 94.7891C45.152 95.0495 44.9436 95.1862 44.6442 95.1992C44.3056 95.1862 44.0712 94.9583 43.941 94.5156C43.8759 93.7083 43.8304 92.9792 43.8043 92.3281C43.7783 91.6641 43.7587 90.7005 43.7457 89.4375C43.7718 88.2005 43.7587 87.3021 43.7067 86.7422C43.6546 86.1823 43.596 85.1536 43.5309 83.6562ZM56.7686 84.3984C55.8702 84.5286 54.9327 84.6198 53.9561 84.6719C53.9561 85.1536 53.9626 85.6094 53.9757 86.0391C53.9757 86.1693 53.9887 86.2734 54.0147 86.3516C54.0408 86.4167 54.0994 86.4883 54.1905 86.5664C54.7504 86.9831 55.3038 87.3802 55.8507 87.7578C56.4106 88.1354 57.0095 88.4935 57.6475 88.832C57.7777 88.8711 57.8624 89.0078 57.9014 89.2422C57.9535 89.4635 57.908 89.6523 57.7647 89.8086C57.6606 89.9779 57.5303 90.0755 57.3741 90.1016C57.2309 90.1276 57.0616 90.082 56.8663 89.9648C56.5017 89.7826 55.9483 89.4635 55.2061 89.0078C54.4639 88.5391 53.9366 88.1549 53.6241 87.8555C53.533 87.7904 53.4613 87.7643 53.4093 87.7773C53.3702 87.7773 53.3246 87.7969 53.2725 87.8359C52.7908 88.2005 52.3676 88.5521 52.003 88.8906C51.6514 89.2292 51.2283 89.5938 50.7335 89.9844C50.408 90.2188 50.0955 90.1862 49.796 89.8867C49.5486 89.5482 49.5811 89.2292 49.8936 88.9297L52.2178 86.8008C52.3481 86.6966 52.4327 86.5859 52.4718 86.4688C52.5238 86.3385 52.5499 86.1562 52.5499 85.9219C52.5499 85.4661 52.5434 85.0625 52.5303 84.7109C51.5277 84.737 50.5707 84.724 49.6593 84.6719C49.4639 84.6589 49.3077 84.6068 49.1905 84.5156C49.0863 84.4245 49.0343 84.2487 49.0343 83.9883C49.0343 83.7799 49.1124 83.6172 49.2686 83.5C49.4249 83.3828 49.6137 83.3307 49.835 83.3438C50.7856 83.3568 51.977 83.3438 53.4093 83.3047C54.8546 83.2526 55.9483 83.1875 56.6905 83.1094C56.9119 83.0964 57.0876 83.1354 57.2178 83.2266C57.3611 83.3047 57.4327 83.4609 57.4327 83.6953C57.4587 83.8646 57.4197 84.0273 57.3155 84.1836C57.2113 84.3268 57.029 84.3984 56.7686 84.3984ZM60.0694 90.375C60.0303 89.3333 60.0043 88.2786 59.9913 87.2109C59.9783 86.1432 60.0043 84.776 60.0694 83.1094C60.1215 82.7708 60.1866 82.569 60.2647 82.5039C60.3559 82.4388 60.4926 82.3932 60.6749 82.3672C61.1046 82.3411 61.352 82.569 61.4171 83.0508C61.3389 84.4831 61.3129 85.7656 61.3389 86.8984C61.365 88.0182 61.391 89.125 61.4171 90.2188C61.5082 90.6354 61.3585 90.9089 60.9678 91.0391C60.5121 91.1953 60.2126 90.974 60.0694 90.375ZM49.4835 93.8125C49.6007 93.0573 49.7048 92.4779 49.796 92.0742C49.8871 91.8008 49.9913 91.625 50.1085 91.5469C50.2387 91.4557 50.4014 91.4102 50.5968 91.4102C51.0655 91.4362 51.2803 91.6706 51.2413 92.1133C51.2152 92.3867 51.1827 92.6211 51.1436 92.8164C51.1046 93.0117 51.0655 93.2526 51.0264 93.5391C50.9353 93.9297 50.9744 94.151 51.1436 94.2031C51.3129 94.2552 51.5473 94.2747 51.8468 94.2617C52.7322 94.2096 53.8259 94.1055 55.128 93.9492C56.4301 93.7799 58.1553 93.7474 60.3038 93.8516C60.6684 93.8646 60.9744 93.8776 61.2218 93.8906C61.4822 93.8906 61.7426 93.9427 62.003 94.0469C62.3936 94.2422 62.5173 94.5156 62.3741 94.8672C62.1918 95.2708 61.7231 95.4206 60.9678 95.3164C60.2126 95.2122 59.4184 95.1471 58.585 95.1211C57.0616 95.082 55.7725 95.1341 54.7178 95.2773C53.6632 95.4206 52.6475 95.5117 51.671 95.5508C50.9548 95.5508 50.3949 95.4141 49.9913 95.1406C49.6007 94.8672 49.4314 94.4245 49.4835 93.8125ZM76.1587 84.5547C76.6275 84.5547 77.1093 84.5612 77.604 84.5742C78.1379 84.6133 78.3853 84.8281 78.3462 85.2188C78.3462 85.6745 78.1053 85.8763 77.6236 85.8242C77.1027 85.8112 76.6275 85.8112 76.1978 85.8242C76.1978 86.0326 76.2043 86.2409 76.2173 86.4492C76.2824 87.7513 76.3996 88.9036 76.5689 89.9062C76.621 90.2969 76.4126 90.5378 75.9439 90.6289C75.5012 90.668 75.2408 90.401 75.1626 89.8281C75.0324 88.9036 74.9478 87.901 74.9087 86.8203C74.8827 85.7396 74.8436 84.4115 74.7915 82.8359C74.8436 82.4974 74.9087 82.3021 74.9869 82.25C75.065 82.1849 75.1952 82.1393 75.3775 82.1133C75.7681 82.0742 76.0415 82.263 76.1978 82.6797C76.1718 83.2917 76.1587 83.9167 76.1587 84.5547ZM65.2017 84.1641C65.0975 85.2318 65.0454 86.4492 65.0454 87.8164C65.0324 88.0898 65.0715 88.2721 65.1626 88.3633C65.2668 88.4414 65.4751 88.4609 65.7876 88.4219C66.5949 88.4479 67.2069 88.4609 67.6236 88.4609C68.0402 88.4479 68.4895 88.4349 68.9712 88.4219C70.104 88.4089 70.7616 88.4154 70.9439 88.4414C71.1392 88.4674 71.6861 88.487 72.5845 88.5C73.0012 88.513 73.203 88.7279 73.19 89.1445C73.19 89.3138 73.1509 89.457 73.0728 89.5742C73.0077 89.6784 72.8645 89.7435 72.6431 89.7695C71.5494 89.7435 70.8853 89.7305 70.6509 89.7305C70.4296 89.7305 69.8892 89.7305 69.0298 89.7305C68.4048 89.7435 67.7798 89.7565 67.1548 89.7695C66.5298 89.7695 65.9439 89.75 65.397 89.7109C64.9283 89.6979 64.5116 89.5547 64.147 89.2812C63.7824 88.9948 63.6132 88.4414 63.6392 87.6211C63.6392 87.0352 63.6718 86.3646 63.7369 85.6094C63.7759 85.0885 63.8215 84.5872 63.8736 84.1055C63.6913 84.0143 63.5871 83.8451 63.5611 83.5977C63.5741 83.3372 63.6457 83.1419 63.7759 83.0117C63.9191 82.8685 64.0884 82.7969 64.2837 82.7969C65.1822 82.7839 66.328 82.7969 67.7212 82.8359C69.1275 82.862 70.4816 82.8229 71.7837 82.7188C71.979 82.7188 72.1483 82.7708 72.2915 82.875C72.4348 82.9792 72.5064 83.1354 72.5064 83.3438C72.4803 83.7734 72.2785 84.0078 71.9009 84.0469C71.1587 84.138 70.1822 84.1836 68.9712 84.1836C67.7603 84.1836 66.8358 84.1706 66.1978 84.1445C65.8462 84.1445 65.5142 84.151 65.2017 84.1641ZM64.4009 93.7344C64.3749 93.0833 64.4139 92.3737 64.5181 91.6055C64.5702 91.319 64.6613 91.1367 64.7915 91.0586C64.9348 90.9805 65.104 90.9414 65.2994 90.9414C65.7681 90.9805 65.996 91.2214 65.9829 91.6641C65.9439 92.1198 65.9178 92.4323 65.9048 92.6016C65.9048 92.7708 65.9113 93.0247 65.9244 93.3633C65.9113 93.6367 65.9764 93.832 66.1197 93.9492C66.2629 94.0534 66.4843 94.099 66.7837 94.0859C67.4608 94.112 68.0663 94.112 68.6001 94.0859C69.147 94.0469 70.0129 94.0013 71.1978 93.9492C73.5155 93.9102 74.8892 93.8971 75.3189 93.9102C75.7616 93.9102 76.2889 93.8971 76.9009 93.8711C77.3176 93.8711 77.5259 94.099 77.5259 94.5547C77.5259 94.9583 77.3241 95.1862 76.9204 95.2383C76.5298 95.2904 76.0806 95.3164 75.5728 95.3164C74.8957 95.3424 74.3488 95.3359 73.9322 95.2969C73.5155 95.2448 72.7538 95.2513 71.647 95.3164C70.5923 95.3685 69.746 95.4076 69.1079 95.4336C68.4829 95.4466 67.6822 95.4596 66.7056 95.4727C65.9895 95.4727 65.4296 95.3424 65.0259 95.082C64.6353 94.8086 64.427 94.3594 64.4009 93.7344ZM82.5996 87.4453C82.6777 87.4193 82.7559 87.3997 82.834 87.3867C83.2116 87.2435 83.6413 87.1654 84.123 87.1523C84.696 87.1263 85.1126 87.1133 85.373 87.1133C85.7637 87.1523 86.1608 87.2435 86.5645 87.3867C86.9811 87.5299 87.3392 87.7057 87.6387 87.9141C88.1074 88.2135 88.5501 88.6888 88.9668 89.3398C89.3835 89.9779 89.5397 90.7656 89.4355 91.7031C89.3314 92.5885 89.097 93.2656 88.7324 93.7344C88.3678 94.2031 87.9121 94.5547 87.3652 94.7891C87.1829 94.8802 86.8639 94.9583 86.4082 95.0234C85.9655 95.0755 85.5488 95.0951 85.1582 95.082C83.9342 95.0951 82.9512 94.8737 82.209 94.418C81.4798 93.9622 81.0046 93.3242 80.7832 92.5039C80.653 92.1393 80.5944 91.6771 80.6074 91.1172C80.5814 90.6094 80.64 90.1146 80.7832 89.6328C80.9395 89.151 81.1478 88.7279 81.4082 88.3633C81.5514 88.1549 81.7142 87.9857 81.8965 87.8555C82.0788 87.7122 82.3132 87.5755 82.5996 87.4453ZM82.9316 88.793C82.528 89.0534 82.2676 89.3724 82.1504 89.75C82.0072 90.2188 81.9421 90.6549 81.9551 91.0586C81.9421 91.5273 82.0072 91.9505 82.1504 92.3281C82.3066 92.7578 82.6387 93.1094 83.1465 93.3828C83.6543 93.6432 84.3249 93.7734 85.1582 93.7734C86.2129 93.7604 86.9486 93.5846 87.3652 93.2461C87.7949 92.9076 88.0423 92.3802 88.1074 91.6641C88.1335 91.0391 88.0488 90.5443 87.8535 90.1797C87.6582 89.8151 87.4759 89.5482 87.3066 89.3789C87.1113 89.1576 86.8444 88.9688 86.5059 88.8125C86.1673 88.6562 85.8223 88.5456 85.4707 88.4805C84.6113 88.4154 83.8431 88.487 83.166 88.6953C83.0879 88.7474 83.0098 88.7799 82.9316 88.793ZM91.623 83.793C91.623 83.5195 91.6556 83.2917 91.7207 83.1094C91.7988 82.9271 92.0137 82.8359 92.3652 82.8359C92.821 82.888 93.0423 83.168 93.0293 83.6758C93.1335 84.8737 93.2246 86.2279 93.3027 87.7383C93.7454 87.7643 94.2142 87.7839 94.709 87.7969C95.1257 87.862 95.3405 88.1029 95.3535 88.5195C95.3275 88.8711 95.1126 89.0273 94.709 88.9883C94.3835 88.9753 94.0775 88.9688 93.791 88.9688H93.3613C93.3743 89.2682 93.3874 89.5742 93.4004 89.8867C93.5046 92.2826 93.5566 93.9492 93.5566 94.8867C93.6087 95.069 93.5632 95.2513 93.4199 95.4336C93.2897 95.6029 93.0749 95.694 92.7754 95.707C92.4889 95.681 92.2936 95.401 92.1895 94.8672C92.1374 93.4479 92.0658 91.8464 91.9746 90.0625C91.8965 88.2786 91.7793 86.1888 91.623 83.793ZM78.9863 85.7656C78.9342 85.3229 79.2142 85.0755 79.8262 85.0234C81.4798 84.9583 82.9902 84.8932 84.3574 84.8281C85.7376 84.763 87.3717 84.6784 89.2598 84.5742C89.377 84.5612 89.5202 84.5807 89.6895 84.6328C89.8717 84.6849 89.9694 84.8346 89.9824 85.082C90.0085 85.2513 89.9759 85.4206 89.8848 85.5898C89.7936 85.7591 89.6374 85.8503 89.416 85.8633C88.0879 85.9674 86.4668 86.0651 84.5527 86.1562C82.6517 86.2474 81.1152 86.3125 79.9434 86.3516C79.6569 86.3776 79.4421 86.3646 79.2988 86.3125C79.1556 86.2604 79.0514 86.0781 78.9863 85.7656ZM81.7207 83.832C81.278 83.9102 81.0046 83.7279 80.9004 83.2852C80.9264 82.8294 81.1478 82.5951 81.5645 82.582C82.4759 82.4779 83.3483 82.3997 84.1816 82.3477C85.015 82.2956 85.946 82.2305 86.9746 82.1523C87.3913 82.1003 87.6322 82.263 87.6973 82.6406C87.7103 83.0573 87.541 83.2982 87.1895 83.3633C86.2389 83.4805 85.4186 83.5716 84.7285 83.6367C84.0514 83.6888 83.0488 83.7539 81.7207 83.832ZM96.7749 83.832C97.7644 83.6888 98.6824 83.5716 99.5288 83.4805C100.375 83.3893 101.085 83.3438 101.658 83.3438C102.179 83.3177 102.595 83.3828 102.908 83.5391C103.22 83.6953 103.429 84.0729 103.533 84.6719C103.546 85.0625 103.559 85.4466 103.572 85.8242C103.598 86.2018 103.591 86.5599 103.552 86.8984C103.526 87.2109 103.415 87.4648 103.22 87.6602C103.025 87.8555 102.732 87.9922 102.341 88.0703C101.729 88.1615 101.111 88.2526 100.486 88.3438C99.8608 88.4349 99.2228 88.5195 98.5717 88.5977C98.2332 88.6497 98.0184 88.7409 97.9272 88.8711C97.8491 88.9883 97.8165 89.1641 97.8296 89.3984C97.8556 89.9844 97.8816 90.4792 97.9077 90.8828C97.9337 91.2865 97.9923 91.7487 98.0835 92.2695C98.1355 92.7643 98.422 92.9792 98.9428 92.9141C99.3855 92.862 99.8348 92.8294 100.29 92.8164C100.759 92.7904 101.345 92.7122 102.048 92.582C102.647 92.5039 103.051 92.4648 103.259 92.4648C103.481 92.4518 103.793 92.4583 104.197 92.4844C104.757 92.6276 105.004 92.875 104.939 93.2266C104.874 93.6172 104.607 93.7995 104.138 93.7734C103.682 93.8385 103.285 93.8776 102.947 93.8906C102.608 93.8906 102.1 93.9427 101.423 94.0469C100.981 94.0729 100.577 94.1185 100.212 94.1836C99.8608 94.2357 99.4246 94.2878 98.9038 94.3398C98.3309 94.3659 97.8621 94.2747 97.4975 94.0664C97.1329 93.8581 96.879 93.474 96.7358 92.9141C96.6186 92.3542 96.534 91.7096 96.4819 90.9805C96.4298 90.2383 96.4103 89.5872 96.4233 89.0273C96.4363 88.4935 96.521 88.1224 96.6772 87.9141C96.8335 87.7057 97.1785 87.5299 97.7124 87.3867C98.5457 87.2565 99.2163 87.1589 99.7241 87.0938C100.245 87.0286 100.805 86.957 101.404 86.8789C101.703 86.8529 101.905 86.7878 102.009 86.6836C102.113 86.5664 102.165 86.3646 102.165 86.0781C102.152 85.7917 102.133 85.4857 102.107 85.1602C102.068 85.0299 102.009 84.9193 101.931 84.8281C101.853 84.724 101.69 84.6719 101.443 84.6719C100.688 84.75 100.024 84.8151 99.4506 84.8672C98.8907 84.9193 97.9858 85.0365 96.7358 85.2188C96.3191 85.2188 96.0848 85.0039 96.0327 84.5742C96.0327 84.3268 96.0782 84.1576 96.1694 84.0664C96.2736 83.9622 96.4754 83.8841 96.7749 83.832ZM107.419 83.4805C107.393 83.207 107.419 82.9661 107.498 82.7578C107.576 82.5495 107.784 82.4258 108.123 82.3867C108.643 82.3997 108.897 82.6602 108.884 83.168C108.962 84.0924 109.027 84.9974 109.08 85.8828C109.145 86.7682 109.203 87.7839 109.255 88.9297C109.346 89.8802 109.405 90.8893 109.431 91.957C109.47 93.0247 109.509 93.7799 109.548 94.2227C109.6 94.5091 109.581 94.75 109.49 94.9453C109.399 95.1276 109.203 95.2383 108.904 95.2773C108.539 95.2513 108.279 95.0234 108.123 94.5938C108.07 93.8516 108.031 92.9857 108.005 91.9961C107.979 91.1888 107.94 90.4661 107.888 89.8281C107.432 89.8932 106.977 89.9388 106.521 89.9648C105.818 90.0299 105.03 90.082 104.158 90.1211C103.78 90.1471 103.52 89.9714 103.376 89.5938C103.376 89.3333 103.448 89.1576 103.591 89.0664C103.748 88.9622 103.943 88.8971 104.177 88.8711C105.089 88.819 105.837 88.7604 106.423 88.6953C106.853 88.6562 107.315 88.6042 107.81 88.5391C107.771 87.7057 107.732 86.9896 107.693 86.3906C107.641 85.6094 107.55 84.6393 107.419 83.4805ZM115.653 92.6211C116.786 92.2305 117.612 91.8854 118.133 91.5859C118.667 91.2865 119.201 90.8893 119.735 90.3945C120.347 89.7956 120.828 89.112 121.18 88.3438C121.545 87.5755 121.746 86.9375 121.786 86.4297C121.773 86.2344 121.766 85.9935 121.766 85.707C121.805 85.4336 121.694 85.3034 121.434 85.3164C119.65 85.4466 117.931 85.5117 116.278 85.5117C116.004 85.5117 115.789 85.4727 115.633 85.3945C115.477 85.3034 115.399 85.0885 115.399 84.75C115.438 84.3594 115.698 84.1641 116.18 84.1641C117.443 84.1771 119.364 84.125 121.942 84.0078C122.215 84.0078 122.476 84.0859 122.723 84.2422C122.983 84.3854 123.127 84.7044 123.153 85.1992C123.257 85.5638 123.257 86.0195 123.153 86.5664C123.075 87.3477 122.827 88.1875 122.411 89.0859C121.994 89.9844 121.616 90.5768 121.278 90.8633C120.718 91.5143 119.976 92.1133 119.051 92.6602C118.127 93.207 117.131 93.6107 116.063 93.8711C115.75 93.9622 115.496 93.832 115.301 93.4805C115.236 93.0638 115.353 92.7773 115.653 92.6211ZM125.828 83.6562C125.828 83.3828 125.842 83.1354 125.868 82.9141C125.907 82.6927 126.102 82.5365 126.453 82.4453C126.961 82.4974 127.215 82.7773 127.215 83.2852C127.293 84.4831 127.352 85.4206 127.391 86.0977C127.417 86.5143 127.437 87.0156 127.45 87.6016C128.153 87.5495 128.98 87.4453 129.93 87.2891C130.347 87.276 130.601 87.4844 130.692 87.9141C130.718 88.2656 130.529 88.474 130.125 88.5391C129.318 88.7214 128.433 88.8451 127.469 88.9102C127.469 90.2513 127.482 91.2474 127.508 91.8984C127.534 92.5625 127.586 93.2982 127.664 94.1055C127.717 94.2878 127.684 94.5156 127.567 94.7891C127.45 95.0495 127.241 95.1862 126.942 95.1992C126.603 95.1862 126.369 94.9583 126.239 94.5156C126.174 93.7083 126.128 92.9792 126.102 92.3281C126.076 91.6641 126.056 90.7005 126.043 89.4375C126.069 88.2005 126.056 87.3021 126.004 86.7422C125.952 86.1823 125.894 85.1536 125.828 83.6562ZM131.273 92.6211C132.406 92.2305 133.233 91.8854 133.754 91.5859C134.288 91.2865 134.821 90.8893 135.355 90.3945C135.967 89.7956 136.449 89.112 136.801 88.3438C137.165 87.5755 137.367 86.9375 137.406 86.4297C137.393 86.2344 137.387 85.9935 137.387 85.707C137.426 85.4336 137.315 85.3034 137.055 85.3164C135.271 85.4466 133.552 85.5117 131.898 85.5117C131.625 85.5117 131.41 85.4727 131.254 85.3945C131.098 85.3034 131.019 85.0885 131.019 84.75C131.058 84.3594 131.319 84.1641 131.801 84.1641C133.064 84.1771 134.984 84.125 137.562 84.0078C137.836 84.0078 138.096 84.0859 138.344 84.2422C138.604 84.3854 138.747 84.7044 138.773 85.1992C138.877 85.5638 138.877 86.0195 138.773 86.5664C138.695 87.3477 138.448 88.1875 138.031 89.0859C137.614 89.9844 137.237 90.5768 136.898 90.8633C136.338 91.5143 135.596 92.1133 134.672 92.6602C133.747 93.207 132.751 93.6107 131.683 93.8711C131.371 93.9622 131.117 93.832 130.922 93.4805C130.857 93.0638 130.974 92.7773 131.273 92.6211ZM141.644 83.6562C141.644 83.3828 141.657 83.1354 141.683 82.9141C141.723 82.6927 141.918 82.5365 142.269 82.4453C142.777 82.4974 143.031 82.7773 143.031 83.2852C143.109 84.4831 143.168 85.4271 143.207 86.1172C143.259 86.7943 143.285 87.7188 143.285 88.8906C143.285 90.2318 143.298 91.2344 143.324 91.8984C143.35 92.5625 143.402 93.2982 143.48 94.1055C143.532 94.2878 143.5 94.5156 143.383 94.7891C143.265 95.0495 143.057 95.1862 142.758 95.1992C142.419 95.1862 142.185 94.9583 142.055 94.5156C141.989 93.7083 141.944 92.9792 141.918 92.3281C141.892 91.6641 141.872 90.7005 141.859 89.4375C141.885 88.2005 141.872 87.3021 141.82 86.7422C141.768 86.1823 141.709 85.1536 141.644 83.6562Z" fill="white"/>
<path d="M83 64L87 68L94 61" stroke="white" stroke-width="2" stroke-linecap="round" stroke-linejoin="round"/>
<path fill-rule="evenodd" clip-rule="evenodd" d="M70 41C68.8954 41 68 41.8954 68 43V67C68 68.1046 68.8954 69 70 69H83.7574L80.8787 66.1213C79.7071 64.9497 79.7071 63.0503 80.8787 61.8787C82.0503 60.7071 83.9497 60.7071 85.1213 61.8787L87 63.7574L91 59.7574V43C91 41.8954 90.1046 41 89 41H70ZM73.25 49.5C73.9404 49.5 74.5 48.9404 74.5 48.25C74.5 47.5596 73.9404 47 73.25 47C72.5596 47 72 47.5596 72 48.25C72 48.9404 72.5596 49.5 73.25 49.5ZM77 48.25C77 47.8358 77.3358 47.5 77.75 47.5H85.25C85.6642 47.5 86 47.8358 86 48.25C86 48.6642 85.6642 49 85.25 49H77.75C77.3358 49 77 48.6642 77 48.25ZM73.25 54.5C73.9404 54.5 74.5 53.9404 74.5 53.25C74.5 52.5596 73.9404 52 73.25 52C72.5596 52 72 52.5596 72 53.25C72 53.9404 72.5596 54.5 73.25 54.5ZM77 53.25C77 52.8358 77.3358 52.5 77.75 52.5H85.25C85.6642 52.5 86 52.8358 86 53.25C86 53.6642 85.6642 54 85.25 54H77.75C77.3358 54 77 53.6642 77 53.25ZM73.25 59.5C73.9404 59.5 74.5 58.9404 74.5 58.25C74.5 57.5596 73.9404 57 73.25 57C72.5596 57 72 57.5596 72 58.25C72 58.9404 72.5596 59.5 73.25 59.5ZM77 58.25C77 57.8358 77.3358 57.5 77.75 57.5H85.25C85.6642 57.5 86 57.8358 86 58.25C86 58.6642 85.6642 59 85.25 59H77.75C77.3358 59 77 58.6642 77 58.25Z" fill="white"/>
</g>
<defs>
<filter id="filter0_d_159_42" x="0" y="0" width="161" height="143" filterUnits="userSpaceOnUse" color-interpolation-filters="sRGB">
<feFlood flood-opacity="0" result="BackgroundImageFix"/>
<feColorMatrix in="SourceAlpha" type="matrix" values="0 0 0 0 0 0 0 0 0 0 0 0 0 0 0 0 0 0 127 0" result="hardAlpha"/>
<feOffset dy="1"/>
<feGaussianBlur stdDeviation="2"/>
<feComposite in2="hardAlpha" operator="out"/>
<feColorMatrix type="matrix" values="0 0 0 0 0 0 0 0 0 0 0 0 0 0 0 0 0 0 0.15 0"/>
<feBlend mode="normal" in2="BackgroundImageFix" result="effect1_dropShadow_159_42"/>
<feBlend mode="normal" in="SourceGraphic" in2="effect1_dropShadow_159_42" result="shape"/>
</filter>
</defs>
</svg>
