<svg width="161" height="143" viewBox="0 0 161 143" fill="none" xmlns="http://www.w3.org/2000/svg">
<g filter="url(#filter0_d_621_183)">
<rect x="4" y="3" width="153" height="135" rx="10" fill="#FF6379" shape-rendering="crispEdges"/>
<mask id="mask0_621_183" style="mask-type:alpha" maskUnits="userSpaceOnUse" x="4" y="3" width="153" height="135">
<rect x="4" y="3" width="153" height="135" rx="10" fill="#FF6379"/>
</mask>
<g mask="url(#mask0_621_183)">
<path d="M76 45.5C56.5 20.5 3.5 26 -8 33V-1.5L171 -14L201.5 78.5C199.167 83.3333 175.5 89 158 89C136.034 89 99.5586 75.7033 76 45.5Z" fill="#FF516A"/>
</g>
<path d="M82.5 64L86.5 68L93.5 61" stroke="white" stroke-width="2" stroke-linecap="round" stroke-linejoin="round"/>
<path fill-rule="evenodd" clip-rule="evenodd" d="M69.5 41C68.3954 41 67.5 41.8954 67.5 43V67C67.5 68.1046 68.3954 69 69.5 69H83.2574L80.3787 66.1213C79.2071 64.9497 79.2071 63.0503 80.3787 61.8787C81.5503 60.7071 83.4497 60.7071 84.6213 61.8787L86.5 63.7574L90.5 59.7574V43C90.5 41.8954 89.6046 41 88.5 41H69.5ZM72.75 49.5C73.4404 49.5 74 48.9404 74 48.25C74 47.5596 73.4404 47 72.75 47C72.0596 47 71.5 47.5596 71.5 48.25C71.5 48.9404 72.0596 49.5 72.75 49.5ZM76.5 48.25C76.5 47.8358 76.8358 47.5 77.25 47.5H84.75C85.1642 47.5 85.5 47.8358 85.5 48.25C85.5 48.6642 85.1642 49 84.75 49H77.25C76.8358 49 76.5 48.6642 76.5 48.25ZM72.75 54.5C73.4404 54.5 74 53.9404 74 53.25C74 52.5596 73.4404 52 72.75 52C72.0596 52 71.5 52.5596 71.5 53.25C71.5 53.9404 72.0596 54.5 72.75 54.5ZM76.5 53.25C76.5 52.8358 76.8358 52.5 77.25 52.5H84.75C85.1642 52.5 85.5 52.8358 85.5 53.25C85.5 53.6642 85.1642 54 84.75 54H77.25C76.8358 54 76.5 53.6642 76.5 53.25ZM72.75 59.5C73.4404 59.5 74 58.9404 74 58.25C74 57.5596 73.4404 57 72.75 57C72.0596 57 71.5 57.5596 71.5 58.25C71.5 58.9404 72.0596 59.5 72.75 59.5ZM76.5 58.25C76.5 57.8358 76.8358 57.5 77.25 57.5H84.75C85.1642 57.5 85.5 57.8358 85.5 58.25C85.5 58.6642 85.1642 59 84.75 59H77.25C76.8358 59 76.5 58.6642 76.5 58.25Z" fill="white"/>
</g>
<defs>
<filter id="filter0_d_621_183" x="0" y="0" width="161" height="143" filterUnits="userSpaceOnUse" color-interpolation-filters="sRGB">
<feFlood flood-opacity="0" result="BackgroundImageFix"/>
<feColorMatrix in="SourceAlpha" type="matrix" values="0 0 0 0 0 0 0 0 0 0 0 0 0 0 0 0 0 0 127 0" result="hardAlpha"/>
<feOffset dy="1"/>
<feGaussianBlur stdDeviation="2"/>
<feComposite in2="hardAlpha" operator="out"/>
<feColorMatrix type="matrix" values="0 0 0 0 0 0 0 0 0 0 0 0 0 0 0 0 0 0 0.15 0"/>
<feBlend mode="normal" in2="BackgroundImageFix" result="effect1_dropShadow_621_183"/>
<feBlend mode="normal" in="SourceGraphic" in2="effect1_dropShadow_621_183" result="shape"/>
</filter>
</defs>
</svg>
