<svg width="80" height="32" viewBox="0 0 80 32" fill="none" xmlns="http://www.w3.org/2000/svg">
<path d="M33.5003 20.6138C33.5003 18.6064 32.4966 17.6026 30.4892 17.6026C29.5311 17.6026 28.7631 17.846 28.1852 18.3326C27.6225 18.8193 27.3412 19.4732 27.3412 20.2944V28.2101C27.3412 28.6207 27.1435 28.826 26.7481 28.826H25.3109C24.9155 28.826 24.7178 28.6207 24.7178 28.2101V15.9374C24.7178 15.5268 24.9155 15.3215 25.3109 15.3215H26.7481C27.1435 15.3215 27.3412 15.5268 27.3412 15.9374V16.7358C27.8126 16.2491 28.3905 15.8537 29.0748 15.5496C29.7744 15.2454 30.4892 15.0934 31.2191 15.0934C32.7551 15.0934 33.9565 15.542 34.8234 16.4392C35.6902 17.3213 36.1237 18.5683 36.1237 20.1804V28.2101C36.1237 28.6207 35.9259 28.826 35.5305 28.826H34.0934C33.698 28.826 33.5003 28.6207 33.5003 28.2101V20.6138ZM46.9366 20.6138C46.9366 18.6064 45.9328 17.6026 43.9254 17.6026C42.9673 17.6026 42.1993 17.846 41.6214 18.3326C41.0588 18.8193 40.7774 19.4732 40.7774 20.2944V28.2101C40.7774 28.6207 40.5797 28.826 40.1843 28.826H38.7472C38.3518 28.826 38.1541 28.6207 38.1541 28.2101V15.9374C38.1541 15.5268 38.3518 15.3215 38.7472 15.3215H40.1843C40.5797 15.3215 40.7774 15.5268 40.7774 15.9374V16.7358C41.2489 16.2491 41.8267 15.8537 42.5111 15.5496C43.2107 15.2454 43.9254 15.0934 44.6554 15.0934C46.1914 15.0934 47.3928 15.542 48.2596 16.4392C49.1265 17.3213 49.5599 18.5683 49.5599 20.1804V28.2101C49.5599 28.6207 49.3622 28.826 48.9668 28.826H47.5297C47.1343 28.826 46.9366 28.6207 46.9366 28.2101V20.6138ZM63.5893 25.3358C63.3459 26.522 62.7072 27.4421 61.6731 28.096C60.6542 28.7499 59.3539 29.0769 57.7723 29.0769C55.6432 29.0769 54.0388 28.4914 52.959 27.3204C51.8945 26.1494 51.3622 24.4081 51.3622 22.0965C51.3622 19.785 51.8869 18.0437 52.9362 16.8727C53.9855 15.6865 55.5291 15.0934 57.567 15.0934C59.5136 15.0934 61.0115 15.6789 62.0609 16.8499C63.1254 18.0056 63.6577 19.6633 63.6577 21.8228C63.6577 22.2942 63.536 22.6744 63.2927 22.9634C63.0494 23.2371 62.6844 23.374 62.1977 23.374H54.054C54.2061 24.545 54.5863 25.389 55.1946 25.9061C55.8029 26.4079 56.7077 26.6589 57.9092 26.6589C58.6391 26.6589 59.2702 26.5372 59.8025 26.2939C60.35 26.0506 60.753 25.6704 61.0115 25.1533C61.118 24.9252 61.3309 24.8111 61.6503 24.8111H63.0874C63.498 24.8111 63.6653 24.986 63.5893 25.3358ZM61.0115 21.0928C60.9811 19.8458 60.6922 18.9333 60.1447 18.3554C59.5972 17.7775 58.7532 17.4886 57.6126 17.4886C56.4872 17.4886 55.6356 17.7775 55.0577 18.3554C54.4798 18.9181 54.1376 19.8306 54.0312 21.0928H61.0115ZM68.1336 22.0281C68.1336 23.4576 68.4149 24.5754 68.9776 25.3814C69.5555 26.1874 70.4072 26.5904 71.5325 26.5904C72.08 26.5904 72.6655 26.4916 73.289 26.2939C73.9125 26.1114 74.4296 25.8681 74.8402 25.5639V20.5225C74.8402 19.6101 74.5285 18.8877 73.9049 18.3554C73.2814 17.8232 72.445 17.557 71.3957 17.557C70.3919 17.557 69.5935 17.96 69.0004 18.766C68.4225 19.572 68.1336 20.6594 68.1336 22.0281ZM77.4179 28.2101C77.4179 28.6207 77.2202 28.826 76.8248 28.826H75.3877C74.9923 28.826 74.7946 28.6207 74.7946 28.2101V27.4801C74.5969 27.7082 74.3536 27.9135 74.0646 28.096C73.7909 28.2937 73.4867 28.461 73.1522 28.5979C72.8176 28.7347 72.4678 28.8412 72.1028 28.9172C71.7378 29.0085 71.3728 29.0541 71.0079 29.0541C70.1866 29.0541 69.4415 28.8944 68.7723 28.575C68.1032 28.2557 67.5253 27.7918 67.0386 27.1835C66.5672 26.5752 66.2022 25.8377 65.9437 24.9708C65.6851 24.0888 65.5559 23.1003 65.5559 22.0053C65.5559 19.8002 66.0045 18.0969 66.9018 16.8955C67.8142 15.6941 69.0993 15.0934 70.7569 15.0934C71.5629 15.0934 72.3081 15.253 72.9925 15.5724C73.6768 15.8766 74.2775 16.3176 74.7946 16.8955V11.74C74.7946 11.3294 74.9923 11.1241 75.3877 11.1241H76.8248C77.2202 11.1241 77.4179 11.3294 77.4179 11.74V28.2101Z" fill="white"/>
<path d="M3.99204 13.6334V20.6822H8.94217C10.0219 20.6822 10.8355 20.3857 11.383 19.7926C11.9305 19.1842 12.2042 18.3098 12.2042 17.1692C12.2042 16.0134 11.9305 15.139 11.383 14.5459C10.8355 13.9376 10.0219 13.6334 8.94217 13.6334H3.99204ZM3.99204 23.1915V28.2101C3.99204 28.6207 3.79434 28.826 3.39894 28.826H1.9618C1.5664 28.826 1.3687 28.6207 1.3687 28.2101V12.1963C1.3687 11.4815 1.71848 11.1241 2.41804 11.1241H9.07904C10.8888 11.1241 12.2955 11.6336 13.2992 12.6525C14.3181 13.6562 14.8276 15.1542 14.8276 17.1464C14.8276 19.1386 14.3181 20.6442 13.2992 21.6631C12.2955 22.682 10.8888 23.1915 9.07904 23.1915H3.99204Z" fill="white"/>
<path d="M19.2073 12.3562C19.9432 12.7839 21.3536 13.0097 21.9668 13.0691L16.2639 20.9106C17.0611 18.6532 18.7658 13.7819 19.2073 12.3562Z" fill="white"/>
<circle cx="6.17816" cy="6.17816" r="6.17816" transform="matrix(-1 0 0 1 29.5703 0)" fill="white"/>
</svg>
