<svg width="153" height="120" viewBox="0 0 153 120" fill="none" xmlns="http://www.w3.org/2000/svg">
<rect width="153" height="120" rx="10" fill="#FF6379"/>
<mask id="mask0_623_376" style="mask-type:alpha" maskUnits="userSpaceOnUse" x="0" y="0" width="153" height="135">
<rect width="153" height="135" rx="10" fill="#FF6379"/>
</mask>
<g mask="url(#mask0_623_376)">
<path d="M72 42.5C52.5 17.5 -0.5 23 -12 30V-4.5L167 -17L197.5 75.5C195.167 80.3333 171.5 86 154 86C132.034 86 95.5586 72.7033 72 42.5Z" fill="#FF516A"/>
</g>
<path d="M76.0535 32.5349C84.4769 32.5349 91.3687 38.0899 91.3687 44.9483C91.3687 45.8483 91.2462 46.7172 91.0318 47.5551C89.6306 46.8154 88.065 46.4538 86.4858 46.5054C84.9066 46.5569 83.3672 47.0197 82.0159 47.8493C80.6646 48.6788 79.5471 49.8471 78.771 51.2415C77.9949 52.6358 77.5864 54.2093 77.585 55.81L77.7076 57.2841L76.0535 57.3617C74.1544 57.3617 72.3319 57.0824 70.6472 56.5859C66.1752 60.4651 60.7383 60.4651 60.7383 60.4651C64.3067 56.8497 64.8734 54.4135 64.95 53.4825C62.3464 51.2636 60.7383 48.2689 60.7383 44.9483C60.7383 38.0899 67.6301 32.5349 76.0535 32.5349Z" fill="white"/>
<path fill-rule="evenodd" clip-rule="evenodd" d="M84.0945 49.9559H84.5935H86.208H86.707L89.9626 59.4317H87.8491L87.0976 57.2441H83.7039L82.9524 59.4317H80.8389L84.0945 49.9559ZM84.2274 55.7202H86.5738L85.4006 52.3056L84.2274 55.7202Z" fill="white"/>
<path d="M92.2607 49.9559L92.2607 59.4317L90.303 59.4317L90.303 49.9559L92.2607 49.9559Z" fill="white"/>
</svg>
