<svg width="153" height="120" viewBox="0 0 153 120" fill="none" xmlns="http://www.w3.org/2000/svg">
<rect width="153" height="120" rx="10" fill="#FFB9C3"/>
<mask id="mask0_623_346" style="mask-type:alpha" maskUnits="userSpaceOnUse" x="0" y="0" width="153" height="135">
<rect width="153" height="135" rx="10" fill="#FFB9C3"/>
</mask>
<g mask="url(#mask0_623_346)">
<path d="M72.5 42.5C53 17.5 0 23 -11.5 30V-4.5L167.5 -17L198 75.5C195.667 80.3333 172 86 154.5 86C132.534 86 96.0586 72.7033 72.5 42.5Z" fill="#FFAAB6"/>
</g>
<path d="M61.7081 49.5167C56.7148 51.3892 54.3846 61.9999 76.6879 61.9999C98.9913 61.9999 96.0369 51.3892 91.2517 49.5167" stroke="white" stroke-width="1.24832" stroke-linecap="round"/>
<path fill-rule="evenodd" clip-rule="evenodd" d="M76.7565 31C76.063 32.8725 73.2791 37.6577 68.6424 42.651C63.233 48.4765 67.602 55.9664 76.7565 55.9664C86.951 55.9664 89.4479 48.0604 84.8706 42.651C80.2934 37.2416 77.3805 33.0805 76.7565 31ZM74.7963 40.4238C74.9452 40.2487 74.9239 39.9861 74.7488 39.8373C74.5737 39.6885 74.3111 39.7098 74.1622 39.8849C73.5713 40.5801 72.6538 41.6748 71.8208 42.7008C70.9982 43.7141 70.2298 44.6942 69.9614 45.1416C69.6294 45.6949 69.1142 46.8233 69.201 48.038C69.2451 48.6554 69.4452 49.296 69.9021 49.8829C70.3575 50.4679 71.0494 50.9758 72.0399 51.361C72.2541 51.4442 72.4952 51.3381 72.5785 51.124C72.6618 50.9098 72.5557 50.6686 72.3415 50.5853C71.4594 50.2423 70.903 49.8139 70.5588 49.3717C70.2159 48.9313 70.065 48.4536 70.0311 47.9787C69.9618 47.0089 70.3828 46.0568 70.675 45.5698C70.9059 45.185 71.6286 44.2579 72.4669 43.2253C73.2949 42.2055 74.2083 41.1157 74.7963 40.4238Z" fill="white"/>
</svg>
